<mxfile host="app.diagrams.net" modified="2022-10-31T13:28:31.355Z" agent="5.0 (Windows NT 10.0; Win64; x64) AppleWebKit/537.36 (KHTML, like Gecko) Chrome/106.0.0.0 Safari/537.36" etag="9tbJJo9YGyzaf4uHf3y1" version="20.5.1" type="github">
  <diagram id="6FrJkTGqepBg1Tuwh8yL" name="Seite-1">
    <mxGraphModel dx="1341" dy="914" grid="1" gridSize="10" guides="1" tooltips="1" connect="1" arrows="1" fold="1" page="1" pageScale="1" pageWidth="827" pageHeight="1169" math="0" shadow="0">
      <root>
        <mxCell id="0" />
        <mxCell id="1" parent="0" />
        <mxCell id="x0Fxw4ORqw18cPwXKs9--8" value="" style="group" vertex="1" connectable="0" parent="1">
          <mxGeometry x="400" y="40" width="280" height="280" as="geometry" />
        </mxCell>
        <mxCell id="x0Fxw4ORqw18cPwXKs9--1" value="" style="whiteSpace=wrap;html=1;aspect=fixed;fillColor=#dae8fc;strokeColor=#6c8ebf;" vertex="1" parent="x0Fxw4ORqw18cPwXKs9--8">
          <mxGeometry width="280" height="280" as="geometry" />
        </mxCell>
        <mxCell id="x0Fxw4ORqw18cPwXKs9--7" value="Build Node" style="text;html=1;strokeColor=none;fillColor=none;align=center;verticalAlign=middle;whiteSpace=wrap;rounded=0;" vertex="1" parent="x0Fxw4ORqw18cPwXKs9--8">
          <mxGeometry width="90" height="30" as="geometry" />
        </mxCell>
        <mxCell id="x0Fxw4ORqw18cPwXKs9--10" value="" style="group" vertex="1" connectable="0" parent="1">
          <mxGeometry x="110" y="360" width="280" height="280" as="geometry" />
        </mxCell>
        <mxCell id="x0Fxw4ORqw18cPwXKs9--3" value="" style="whiteSpace=wrap;html=1;aspect=fixed;" vertex="1" parent="x0Fxw4ORqw18cPwXKs9--10">
          <mxGeometry width="280" height="280" as="geometry" />
        </mxCell>
        <mxCell id="x0Fxw4ORqw18cPwXKs9--9" value="Master Node - 01" style="text;html=1;strokeColor=none;fillColor=none;align=center;verticalAlign=middle;whiteSpace=wrap;rounded=0;" vertex="1" parent="x0Fxw4ORqw18cPwXKs9--10">
          <mxGeometry width="110" height="30" as="geometry" />
        </mxCell>
        <mxCell id="x0Fxw4ORqw18cPwXKs9--12" value="" style="group" vertex="1" connectable="0" parent="1">
          <mxGeometry x="600" y="360" width="280" height="280" as="geometry" />
        </mxCell>
        <mxCell id="x0Fxw4ORqw18cPwXKs9--5" value="" style="whiteSpace=wrap;html=1;aspect=fixed;" vertex="1" parent="x0Fxw4ORqw18cPwXKs9--12">
          <mxGeometry width="280" height="280" as="geometry" />
        </mxCell>
        <mxCell id="x0Fxw4ORqw18cPwXKs9--11" value="Worker Node - 01" style="text;html=1;strokeColor=none;fillColor=none;align=center;verticalAlign=middle;whiteSpace=wrap;rounded=0;" vertex="1" parent="x0Fxw4ORqw18cPwXKs9--12">
          <mxGeometry width="110" height="30" as="geometry" />
        </mxCell>
      </root>
    </mxGraphModel>
  </diagram>
</mxfile>
